# xmcd
#
# Track frame offsets: 
#        150
#        18515
#        35308
#        50401
#        67248
#        81686
#        97399
#        113365
#        127431
#        142991
#        158042
#
# Disc length: 2303 seconds
#
# Revision: 0
# Processed by: cddbd v1.5.2PL0 Copyright (c) Steve Scherf et al.
# Submitted via: ExactAudioCopy v1.0b3
#
DISCID=a008fd0b
DTITLE=Xheki - Sikur Bombë
DYEAR=2013
DGENRE=Contry
TTITLE0=Sikur Bombë
TTITLE1=Dy Shkronja Në Letër...
TTITLE2=Femër Pa Zemër...
TTITLE3=Lakmove...
TTITLE4=S'ka Problem
TTITLE5=Zemër,Zemër...
TTITLE6=Gruja E Martume
TTITLE7=As Per Deke...
TTITLE8=Gjarrper
TTITLE9=Mollë E Kafshuar
TTITLE10=Hajt Bonu Fer
EXTD=
EXTT0=
EXTT1=
EXTT2=
EXTT3=
EXTT4=
EXTT5=
EXTT6=
EXTT7=
EXTT8=
EXTT9=
EXTT10=
PLAYORDER=
